# xmcd
#
# Track frame offsets: 
#        150
#        10183
#        17987
#        27448
#        40806
#        53196
#        67262
#        77377
#        94298
#        108100
#        123090
#        132841
#        144053
#        157713
#        169640
#        183884
#
# Disc length: 2651 seconds
#
# Revision: 0
# Processed by: cddbd v1.5.2PL0 Copyright (c) Steve Scherf et al.
# Submitted via: ExactAudioCopy v0.99pb5
#
DISCID=bd0a5910
DTITLE=Broken Roads - Matchbox
DYEAR=2011
DGENRE=Country
TTITLE0=Matchbox
TTITLE1=Boogie shoes
TTITLE2=Got a lot of rhythm in my soul
TTITLE3=She's got you
TTITLE4=Sparkling brown eyes
TTITLE5=Be bop a lula
TTITLE6=Honky tonk blues
TTITLE7=I got my guitar
TTITLE8=Crazy little thing called love
TTITLE9=One after 909
TTITLE10=Word of love
TTITLE11=The things you do
TTITLE12=Crazy arms
TTITLE13=Ring of fire
TTITLE14=Ace of spades
TTITLE15=Rockabilly fever
EXTD=
EXTT0=
EXTT1=
EXTT2=
EXTT3=
EXTT4=
EXTT5=
EXTT6=
EXTT7=
EXTT8=
EXTT9=
EXTT10=
EXTT11=
EXTT12=
EXTT13=
EXTT14=
EXTT15=
PLAYORDER=
